<svg width="48" height="48" viewBox="0 0 48 48" fill="none" xmlns="http://www.w3.org/2000/svg">
<path fill-rule="evenodd" clip-rule="evenodd" d="M24 3C22.7574 3 21.75 4.00736 21.75 5.25C21.75 6.49264 22.7574 7.5 24 7.5C25.2426 7.5 26.25 6.49264 26.25 5.25C26.25 4.00736 25.2426 3 24 3ZM18.75 5.25C18.75 2.3505 21.1005 0 24 0C26.8995 0 29.25 2.3505 29.25 5.25C29.25 8.1495 26.8995 10.5 24 10.5C21.1005 10.5 18.75 8.1495 18.75 5.25Z" fill="#725A3D"/>
<path fill-rule="evenodd" clip-rule="evenodd" d="M5.59835 13.1002C6.30161 12.3969 7.25544 12.0019 8.25 12.0019H39.75C40.7446 12.0019 41.6984 12.3969 42.4016 13.1002C43.1049 13.8035 43.5 14.7573 43.5 15.7519C43.5 16.7464 43.1049 17.7003 42.4016 18.4035C41.6984 19.1068 40.7446 19.5019 39.75 19.5019H31.0875C30.858 19.5019 30.6637 19.5519 30.5345 19.6217C30.4271 19.6797 30.3591 19.7504 30.3125 19.8716L30.3116 19.8739L30.3107 19.8762C30.2047 20.1491 30.1125 20.8635 30.1218 21.9072C30.1305 22.8783 30.2227 23.9173 30.3462 24.6891C30.3464 24.6903 30.3465 24.6915 30.3467 24.6927L30.8036 27.4619L33.6517 43.5947C33.6518 43.5951 33.6518 43.5954 33.6519 43.5958C33.8258 44.5726 33.6047 45.5786 33.0372 46.3926C32.4694 47.2068 31.6015 47.7621 30.6243 47.9364C29.6471 48.1106 28.6407 47.8896 27.8265 47.3218C27.0123 46.7541 26.457 45.8862 26.2827 44.909L26.2823 44.9067L24.3131 33.6638L24.5331 33.6252L24.3133 33.642C24.3081 33.6429 24.3081 33.6429 24.3081 33.643L24.3083 33.6441L24.3084 33.6444C24.3083 33.6441 24.3082 33.6435 24.3081 33.6427C24.3077 33.64 24.3068 33.6346 24.3055 33.6267C24.3029 33.611 24.2985 33.5853 24.2923 33.5511C24.2798 33.4824 24.2603 33.3809 24.2335 33.2577C24.1815 33.0194 24.1063 32.7196 24.0081 32.428C23.9079 32.7222 23.8305 33.0248 23.777 33.2649C23.7494 33.3884 23.7293 33.4903 23.7164 33.5592C23.71 33.5936 23.7054 33.6194 23.7026 33.6353C23.7019 33.6397 23.7013 33.6433 23.7008 33.6462C23.7004 33.6484 23.7001 33.6502 23.6999 33.6514L23.6998 33.6518C23.6998 33.6518 23.6998 33.6518 23.6949 33.6509L23.6614 33.6483L23.6963 33.6544L21.7285 44.8893C21.6472 45.3731 21.4711 45.8361 21.2105 46.2517C20.9485 46.6695 20.6062 47.0311 20.2035 47.3156C19.8008 47.6001 19.3456 47.8019 18.8643 47.9093C18.3841 48.0165 17.8875 48.0275 17.403 47.9417C16.918 47.8567 16.4544 47.677 16.0388 47.4129C15.623 47.1486 15.2633 46.8049 14.9803 46.4015C14.6973 45.9981 14.4966 45.5429 14.3897 45.0618C14.2828 44.5808 14.2717 44.0835 14.3571 43.5982L17.2058 27.4618L17.6626 24.6927C17.6628 24.6916 17.663 24.6905 17.6632 24.6894C17.7866 23.9176 17.8788 22.8784 17.8876 21.9072C17.8969 20.8635 17.8046 20.1491 17.6987 19.8762L17.6978 19.8739L17.6969 19.8716C17.6479 19.7442 17.5791 19.6752 17.4778 19.6203C17.354 19.553 17.1617 19.5019 16.9219 19.5019H8.25C7.25544 19.5019 6.30161 19.1068 5.59835 18.4035C4.89509 17.7002 4.5 16.7464 4.5 15.7519C4.5 14.7573 4.89509 13.8035 5.59835 13.1002ZM20.7443 33.1371L20.7412 33.1368L18.7714 44.384L18.7703 44.3905C18.7545 44.4854 18.7201 44.5763 18.6689 44.6578C18.6178 44.7393 18.551 44.8099 18.4724 44.8654C18.3938 44.921 18.3049 44.9604 18.211 44.9813C18.1171 45.0023 18.0199 45.0044 17.9252 44.9875L17.9231 44.9872L17.9211 44.9868C17.824 44.9698 17.7312 44.9339 17.648 44.881C17.5649 44.8281 17.4929 44.7594 17.4363 44.6787C17.3797 44.598 17.3396 44.507 17.3182 44.4108C17.2968 44.3147 17.2946 44.2153 17.3116 44.1184C17.3116 44.1183 17.3117 44.1182 17.3117 44.1181L20.163 27.9668L20.6243 25.1707L20.6249 25.1673C20.773 24.2425 20.8774 23.052 20.8874 21.9341C20.8968 20.8881 20.8299 19.6541 20.4961 18.7927C19.8138 17.0215 18.1347 16.5019 16.9219 16.5019H8.25C8.05109 16.5019 7.86032 16.4228 7.71967 16.2822C7.57902 16.1415 7.5 15.9508 7.5 15.7519C7.5 15.5529 7.57902 15.3622 7.71967 15.2215C7.86032 15.0809 8.05109 15.0019 8.25 15.0019H39.75C39.9489 15.0019 40.1397 15.0809 40.2803 15.2215C40.421 15.3622 40.5 15.553 40.5 15.7519C40.5 15.9508 40.421 16.1415 40.2803 16.2822C40.1397 16.4228 39.9489 16.5019 39.75 16.5019H31.0875C29.8953 16.5019 28.197 17.0177 27.5132 18.7927C27.1795 19.6541 27.1126 20.8881 27.1219 21.9341C27.132 23.052 27.2364 24.2425 27.3845 25.1673L27.3851 25.1707L27.8464 27.9668L30.6983 44.1215C30.7329 44.3154 30.689 44.5151 30.5764 44.6766C30.4637 44.8382 30.2915 44.9484 30.0976 44.983C29.9037 45.0176 29.704 44.9737 29.5424 44.861C29.3813 44.7487 29.2713 44.5771 29.2364 44.3839C29.2363 44.3834 29.2362 44.3828 29.2361 44.3823L27.2681 33.1462L27.2668 33.1463C27.2661 33.1423 27.2654 33.1381 27.2647 33.1335C27.2599 33.1047 27.253 33.0649 27.2441 33.0158C27.2264 32.9178 27.2001 32.7813 27.1647 32.6189C27.0949 32.2986 26.985 31.856 26.8272 31.4003C26.676 30.9632 26.4493 30.4203 26.1118 29.9585C25.7948 29.5247 25.1553 28.8675 24.15 28.8675H23.8594C22.8511 28.8675 22.214 29.5345 21.9037 29.961C21.5694 30.4204 21.3427 30.9606 21.1905 31.3964C21.0319 31.8507 20.9202 32.2921 20.8489 32.6117C20.8128 32.7738 20.7858 32.9099 20.7675 33.0077C20.7584 33.0566 20.7513 33.0963 20.7464 33.125C20.7456 33.1293 20.7449 33.1333 20.7443 33.1371ZM24.3625 31.6853C24.3625 31.6856 24.359 31.6899 24.3518 31.697C24.3589 31.6884 24.3625 31.6849 24.3625 31.6853ZM23.6677 31.7001C23.6617 31.6942 23.6587 31.6906 23.6587 31.6903C23.6587 31.6899 23.6617 31.6929 23.6677 31.7001Z" fill="#725A3D"/>
</svg>
