<?xml version="1.0" encoding="UTF-8"?>
<svg id="Layer_2" data-name="Layer 2" xmlns="http://www.w3.org/2000/svg" viewBox="0 0 269.76 344.02">
  <defs>
    <style>
      .cls-1 {
        fill: #725a3d;
      }
    </style>
  </defs>
  <g id="Layer_1-2" data-name="Layer 1">
    <path class="cls-1" d="m11.88,208.02c-2.2,0-4.05.06-5.9-.01-3.92-.14-5.89-1.99-5.92-5.84C0,192.17.13,182.17,0,172.17c-.04-3.33,1.87-4.91,4.4-6.13,13.54-6.53,27.13-12.96,40.65-19.54,14.21-6.92,28.34-14.01,42.55-20.94,13-6.34,26.01-12.64,39.12-18.74,2.49-1.16,3.02-2.58,3.02-5.07-.07-31.75-.05-63.49-.04-95.24,0-5.34,1.1-6.47,6.56-6.48,18.96-.03,37.92-.09,56.88.1,1.95.02,5.01,1.15,5.56,2.55.74,1.89.15,4.88-.92,6.8-2.37,4.22-5.31,8.14-8.2,12.05-1.26,1.7-1.36,2.9-.06,4.68,2.93,4.03,5.8,8.13,8.24,12.46,1.03,1.82,1.86,4.84,1.03,6.34-.88,1.58-3.83,2.78-5.9,2.81-16.21.22-32.43.12-48.65.12-1.24,0-2.49,0-3.96,0-.07,1.07-.19,2.04-.19,3-.01,17.25.04,34.5-.07,51.74-.01,2.31.73,3.31,2.78,4.31,19.3,9.33,38.51,18.84,57.78,28.25,16.34,7.98,32.71,15.89,49.08,23.82,5.34,2.58,10.61,5.32,16.07,7.61,3.18,1.33,4.07,3.47,4.04,6.59-.07,9.12,0,18.25-.03,27.37-.01,5.33-1.38,6.63-6.85,6.64-1.47,0-2.94,0-4.7,0-.11,1.78-.27,3.24-.27,4.71-.01,41.37,0,82.74-.01,124.11,0,6.37-1.52,7.93-7.75,7.93-23.95,0-47.9,0-71.85,0-6.89,0-7.63-.75-7.64-7.65,0-14.12.13-28.25-.04-42.37-.13-10.6-3.02-20.34-11.03-27.77-8.46-7.86-18.31-11.12-30.09-9.59-17.39,2.26-27.87,15.31-30.5,31.02-.22,1.33.08,2.74.08,4.11,0,15,0,30,0,44.99,0,5.68-1.56,7.26-7.21,7.26-24.2.01-48.4.01-72.6,0-6.57,0-7.38-.85-7.38-7.58,0-41.37,0-82.74,0-124.11,0-1.34,0-2.69,0-4.31Zm10.47-.24v125.76h66.49c0-1.52,0-2.76,0-4,0-12.37.19-24.74-.05-37.11-.22-11.56,3.33-21.79,10.68-30.42,11.76-13.81,26.98-18.05,44.6-15.03,19.24,3.3,35.21,20.87,36.36,40.75.8,13.95.35,27.96.46,41.95.01,1.32.11,2.64.16,3.87h66.4v-125.77H22.35Zm56.39-10.57c0-7.19-.23-13.94.06-20.67.35-7.97,8.52-13,14.8-11.92,8.68,1.5,13.47,7.81,13.09,15.87-.26,5.58-.05,11.17-.05,17.03,3.94,0,7.41-.1,10.88.03,2.4.09,3.34-.77,3.29-3.24-.12-5.5-.03-11-.01-16.49.01-5.41,2.74-9.3,7.29-11.72,4.45-2.38,9.19-1.94,13.56.4,5.27,2.82,7.21,7.73,7.34,13.42.13,5.81.03,11.63.03,17.16h14.32c0-7.32-.22-14.2.06-21.06.29-7.04,8.83-12.97,15.58-11.17,8.48,2.27,12.14,7.11,12.15,16.11,0,5.43,0,10.87,0,16.16h68.35c0-6.88.09-13.49-.1-20.1-.03-.98-1.16-2.34-2.13-2.83-5.6-2.84-11.32-5.44-16.96-8.19-16.89-8.22-33.77-16.48-50.65-24.72-17.43-8.51-34.83-17.07-52.33-25.43-1.5-.72-3.84-.63-5.43,0-4.14,1.62-8.09,3.72-12.09,5.68-14.73,7.24-29.42,14.56-44.18,21.73-21.1,10.24-42.26,20.35-63.36,30.58-.82.4-1.81,1.51-1.82,2.31-.14,6.96-.08,13.93-.08,21.06h68.42Z"/>
  </g>
</svg>