<?xml version="1.0" encoding="utf-8"?>
<!-- Generator: Adobe Illustrator 23.0.1, SVG Export Plug-In . SVG Version: 6.00 Build 0)  -->
<svg version="1.1" id="Layer_1" xmlns="http://www.w3.org/2000/svg" xmlns:xlink="http://www.w3.org/1999/xlink" x="0px" y="0px"
	 viewBox="0 0 32 32" style="enable-background:new 0 0 32 32;" xml:space="preserve">
<style type="text/css">
	.st0{fill:#1877F2;}
</style>
<path class="st0" d="M32.1,16.1C32.1,7.2,24.9,0,16,0C7.1,0-0.1,7.2-0.1,16.1c0,8,5.9,14.7,13.6,15.9V20.8H9.4v-4.7h4.1v-3.5
	c0-4,2.4-6.3,6.1-6.3c1.8,0,3.6,0.3,3.6,0.3v4h-2c-2,0-2.6,1.2-2.6,2.5v3H23l-0.7,4.7h-3.8V32C26.2,30.8,32.1,24.1,32.1,16.1"/>
<path class="st0" d="M-250.7-250.7"/>
</svg>
