<?xml version="1.0" encoding="utf-8"?>
<!-- Generator: Adobe Illustrator 23.0.1, SVG Export Plug-In . SVG Version: 6.00 Build 0)  -->
<svg version="1.1" id="Layer_1" xmlns="http://www.w3.org/2000/svg" xmlns:xlink="http://www.w3.org/1999/xlink" x="0px" y="0px"
	 viewBox="0 0 32 32" style="enable-background:new 0 0 32 32;" xml:space="preserve">
<style type="text/css">
	.st0{fill:url(#SVGID_1_);}
	.st1{fill:url(#SVGID_2_);}
	.st2{fill:#FFFFFF;}
</style>
<radialGradient id="SVGID_1_" cx="-939.775" cy="375.4573" r="15.997" gradientTransform="matrix(0 -1.982 -1.8439 0 700.8165 -1828.161)" gradientUnits="userSpaceOnUse">
	<stop  offset="0" style="stop-color:#FFDD55"/>
	<stop  offset="0.1" style="stop-color:#FFDD55"/>
	<stop  offset="0.5" style="stop-color:#FF543E"/>
	<stop  offset="1" style="stop-color:#C837AB"/>
</radialGradient>
<path class="st0" d="M16,0C9.3,0,7.4,0,7,0C5.6,0.2,4.8,0.4,3.8,0.8C3.1,1.2,2.6,1.6,2,2.2C1,3.2,0.4,4.5,0.2,6.1C0,6.8,0,7,0,10.8
	c0,1.3,0,3,0,5.2c0,6.7,0,8.6,0,9c0.1,1.3,0.3,2.2,0.8,3.1c0.8,1.8,2.5,3.1,4.4,3.6c0.7,0.2,1.4,0.3,2.3,0.3c0.4,0,4.4,0,8.5,0
	s8.1,0,8.5,0c1.1-0.1,1.7-0.1,2.4-0.3c1.9-0.5,3.5-1.8,4.4-3.6c0.4-0.9,0.7-1.8,0.8-3c0-0.3,0-4.7,0-9.1c0-4.4,0-8.8,0-9.1
	c-0.1-1.3-0.3-2.1-0.8-3.1c-0.4-0.7-0.8-1.3-1.4-1.9c-1.1-1-2.4-1.6-3.9-1.8C25.2,0,25,0,21.2,0H16z"/>
<radialGradient id="SVGID_2_" cx="1046.3905" cy="848.133" r="15.997" gradientTransform="matrix(0.1739 0.8687 3.5818 -0.7172 -3225.2014 -298.4529)" gradientUnits="userSpaceOnUse">
	<stop  offset="0" style="stop-color:#3771C8"/>
	<stop  offset="0.128" style="stop-color:#3771C8"/>
	<stop  offset="1" style="stop-color:#6600FF;stop-opacity:0"/>
</radialGradient>
<path class="st1" d="M16,0C9.3,0,7.4,0,7,0C5.6,0.2,4.8,0.4,3.8,0.8C3.1,1.2,2.6,1.6,2,2.2C1,3.2,0.4,4.5,0.2,6.1C0,6.8,0,7,0,10.8
	c0,1.3,0,3,0,5.2c0,6.7,0,8.6,0,9c0.1,1.3,0.3,2.2,0.8,3.1c0.8,1.8,2.5,3.1,4.4,3.6c0.7,0.2,1.4,0.3,2.3,0.3c0.4,0,4.4,0,8.5,0
	s8.1,0,8.5,0c1.1-0.1,1.7-0.1,2.4-0.3c1.9-0.5,3.5-1.8,4.4-3.6c0.4-0.9,0.7-1.8,0.8-3c0-0.3,0-4.7,0-9.1c0-4.4,0-8.8,0-9.1
	c-0.1-1.3-0.3-2.1-0.8-3.1c-0.4-0.7-0.8-1.3-1.4-1.9c-1.1-1-2.4-1.6-3.9-1.8C25.2,0,25,0,21.2,0H16z"/>
<path class="st2" d="M16,4.2c-3.2,0-3.6,0-4.9,0.1C9.9,4.3,9,4.5,8.3,4.8C7.5,5.1,6.8,5.5,6.2,6.2C5.5,6.8,5.1,7.5,4.8,8.3
	C4.5,9,4.3,9.9,4.3,11.1c-0.1,1.3-0.1,1.7-0.1,4.9s0,3.6,0.1,4.9c0.1,1.3,0.3,2.1,0.5,2.9c0.3,0.8,0.7,1.4,1.4,2.1
	c0.7,0.7,1.3,1.1,2.1,1.4c0.8,0.3,1.6,0.5,2.9,0.5c1.3,0.1,1.7,0.1,4.9,0.1c3.2,0,3.6,0,4.9-0.1c1.3-0.1,2.1-0.3,2.9-0.5
	c0.8-0.3,1.4-0.7,2.1-1.4c0.7-0.7,1.1-1.3,1.4-2.1c0.3-0.8,0.5-1.6,0.5-2.9c0.1-1.3,0.1-1.7,0.1-4.9s0-3.6-0.1-4.9
	c-0.1-1.3-0.3-2.1-0.5-2.9c-0.3-0.8-0.7-1.4-1.4-2.1c-0.7-0.7-1.3-1.1-2.1-1.4c-0.8-0.3-1.6-0.5-2.9-0.5C19.6,4.2,19.2,4.2,16,4.2
	L16,4.2z M14.9,6.3c0.3,0,0.7,0,1.1,0c3.2,0,3.5,0,4.8,0.1c1.2,0.1,1.8,0.2,2.2,0.4c0.6,0.2,0.9,0.5,1.4,0.9C24.7,8.1,25,8.5,25.2,9
	c0.2,0.4,0.4,1,0.4,2.2c0.1,1.2,0.1,1.6,0.1,4.8s0,3.5-0.1,4.8c-0.1,1.2-0.2,1.8-0.4,2.2c-0.2,0.6-0.5,0.9-0.9,1.4
	c-0.4,0.4-0.8,0.7-1.4,0.9c-0.4,0.2-1,0.4-2.2,0.4c-1.2,0.1-1.6,0.1-4.8,0.1c-3.2,0-3.5,0-4.8-0.1c-1.2-0.1-1.8-0.2-2.2-0.4
	c-0.6-0.2-0.9-0.5-1.4-0.9S7,23.5,6.8,23c-0.2-0.4-0.4-1-0.4-2.2c-0.1-1.2-0.1-1.6-0.1-4.8s0-3.5,0.1-4.8C6.4,10.1,6.6,9.4,6.8,9
	C7,8.5,7.3,8.1,7.7,7.7C8.1,7.3,8.5,7,9,6.8c0.4-0.2,1-0.4,2.2-0.4C12.3,6.3,12.7,6.3,14.9,6.3L14.9,6.3z M22.3,8.3
	c-0.8,0-1.4,0.6-1.4,1.4c0,0.8,0.6,1.4,1.4,1.4c0.8,0,1.4-0.6,1.4-1.4S23.1,8.3,22.3,8.3L22.3,8.3z M16,9.9c-3.4,0-6.1,2.7-6.1,6.1
	s2.7,6.1,6.1,6.1c3.4,0,6.1-2.7,6.1-6.1S19.4,9.9,16,9.9L16,9.9z M16,12.1c2.2,0,3.9,1.8,3.9,3.9c0,2.2-1.8,3.9-3.9,3.9
	c-2.2,0-3.9-1.8-3.9-3.9C12.1,13.8,13.8,12.1,16,12.1z"/>
</svg>
