<svg width="50" height="50" viewBox="0 0 50 50" fill="none" xmlns="http://www.w3.org/2000/svg">
<g clip-path="url(#clip0_210_2792)">
<path d="M9.17587 19.375L15.6863 15.7812V28.125C14.9571 28.1944 14.2453 28.3076 13.5509 28.4646C12.8564 28.6215 12.1793 28.8382 11.5196 29.1146V22.8646L9.3842 24.0104C8.89809 24.2882 8.37725 24.3493 7.8217 24.1937C7.26614 24.0382 6.84948 23.7167 6.5717 23.2292L2.40503 15.9896C2.12726 15.5035 2.06614 14.9743 2.2217 14.4021C2.37726 13.8299 2.69878 13.4042 3.18628 13.125L13.5509 7.13542C13.9675 6.89236 14.4016 6.68403 14.853 6.51042C15.3043 6.33681 15.7731 6.25 16.2592 6.25C16.7453 6.25 17.162 6.39792 17.5092 6.69375C17.8564 6.98958 18.1168 7.3625 18.2904 7.8125C18.7766 9.13194 19.4106 10.2431 20.1925 11.1458C20.9745 12.0486 22.2502 12.5 24.0196 12.5C25.7904 12.5 27.0668 12.0486 27.8488 11.1458C28.6307 10.2431 29.2641 9.13194 29.7488 7.8125C29.9224 7.36111 30.1918 6.98819 30.5571 6.69375C30.9224 6.39931 31.3474 6.25139 31.8321 6.25C32.3182 6.25 32.7786 6.33681 33.2134 6.51042C33.6481 6.68403 34.0731 6.89236 34.4884 7.13542L44.8529 13.125C45.3391 13.4028 45.6516 13.8194 45.7904 14.375C45.9293 14.9306 45.8599 15.4514 45.5821 15.9375L41.4675 23.2292C41.1898 23.7153 40.7731 24.0368 40.2175 24.1937C39.662 24.3507 39.1411 24.2896 38.655 24.0104L36.5196 22.8646V32.8646L33.2384 35.7292C33.0995 35.8333 32.9606 35.9292 32.8217 36.0167C32.6828 36.1042 32.5266 36.1819 32.3529 36.25V15.7812L38.8634 19.375L40.9467 15.7292L32.9779 11.0937C32.1446 12.7951 30.9203 14.1493 29.305 15.1562C27.6898 16.1632 25.9279 16.6667 24.0196 16.6667C22.1099 16.6667 20.3481 16.1632 18.7342 15.1562C17.1203 14.1493 15.896 12.7951 15.0613 11.0937L7.04045 15.7292L9.17587 19.375ZM7.35295 38.8021C6.97101 38.3507 6.80573 37.8389 6.85712 37.2667C6.90851 36.6944 7.16059 36.2167 7.61337 35.8333L10.53 33.3333C11.3286 32.6389 12.2404 32.109 13.2654 31.7437C14.2905 31.3785 15.3578 31.1965 16.4675 31.1979C17.5786 31.1979 18.6377 31.3806 19.6446 31.7458C20.6516 32.1111 21.5543 32.6403 22.3529 33.3333L28.3946 38.4896C28.8113 38.8368 29.3064 39.1063 29.88 39.2979C30.4536 39.4896 31.0349 39.5847 31.6238 39.5833C32.2488 39.5833 32.8307 39.4965 33.3696 39.3229C33.9085 39.1493 34.3856 38.8715 34.8009 38.4896L37.7175 35.9896C38.1689 35.6076 38.6814 35.434 39.255 35.4687C39.8286 35.5035 40.3057 35.7465 40.6863 36.1979C41.0682 36.6493 41.2335 37.1618 41.1821 37.7354C41.1307 38.309 40.8786 38.7861 40.4259 39.1667L37.5092 41.6667C36.7106 42.3611 35.8078 42.8819 34.8009 43.2292C33.7939 43.5764 32.7349 43.75 31.6238 43.75C30.5127 43.75 29.4453 43.5764 28.4217 43.2292C27.3981 42.8819 26.4863 42.3611 25.6863 41.6667L19.6446 36.5104C19.2279 36.1632 18.7509 35.8944 18.2134 35.7042C17.6759 35.5139 17.0939 35.4181 16.4675 35.4167C15.8773 35.4167 15.296 35.5125 14.7238 35.7042C14.1516 35.8958 13.6564 36.1646 13.2384 36.5104L10.2696 39.0104C9.81823 39.3924 9.31476 39.566 8.7592 39.5312C8.20364 39.4965 7.73489 39.2535 7.35295 38.8021Z" fill="#725A3D"/>
</g>
<defs>
<clipPath id="clip0_210_2792">
<rect width="50" height="50" fill="white"/>
</clipPath>
</defs>
</svg>
