<?xml version="1.0"?>
<svg width="62" height="62" xmlns="http://www.w3.org/2000/svg" xmlns:svg="http://www.w3.org/2000/svg">
 <g class="layer">
  <title>Layer 1</title>
  <path d="m1.7,50.97l0,-3.32l58.32,0l0,3.32l-58.32,0zm2.56,-7.93l0,-0.76c0,-6.54 2.23,-12.2 6.69,-16.97c4.45,-4.76 9.97,-7.62 16.59,-8.54l0,-1.47c0,-0.89 0.32,-1.67 0.99,-2.33c0.67,-0.67 1.44,-1 2.33,-1c0.89,0 1.66,0.33 2.33,1c0.67,0.66 0.99,1.44 0.99,2.33l0,1.47c6.61,0.93 12.15,3.78 16.6,8.54c4.45,4.77 6.68,10.44 6.68,16.97l0,0.76l-53.2,0zm3.56,-3.32l46.07,0c-0.51,-5.43 -3.01,-10.09 -7.46,-13.98c-4.47,-3.9 -9.65,-5.86 -15.57,-5.86c-5.92,0 -11.11,1.96 -15.56,5.86c-4.45,3.89 -6.95,8.54 -7.48,13.98z" fill="#725A3D" id="svg_1"/>
 </g>
</svg>