<svg width="60" height="60" viewBox="0 0 60 60" fill="none" xmlns="http://www.w3.org/2000/svg">
<path fill-rule="evenodd" clip-rule="evenodd" d="M19.8025 34.9959C22.6126 32.4981 26.2415 31.1184 30.0012 31.1184C33.7609 31.1184 37.3899 32.4981 40.2 34.9959C40.974 35.6838 41.0437 36.8689 40.3558 37.6429C39.6678 38.4169 38.4827 38.4866 37.7087 37.7987C35.5851 35.9111 32.8425 34.8684 30.0012 34.8684C27.1599 34.8684 24.4174 35.9111 22.2938 37.7987C21.5198 38.4866 20.3347 38.4169 19.6467 37.6429C18.9587 36.8689 19.0285 35.6838 19.8025 34.9959Z" fill="#725A3D"/>
<path fill-rule="evenodd" clip-rule="evenodd" d="M12.6107 27.8734C17.3271 23.4633 23.5429 21.0099 30 21.0099C36.457 21.0099 42.6728 23.4633 47.3892 27.8734C48.1455 28.5807 48.1854 29.7672 47.4781 30.5236C46.7708 31.2799 45.5843 31.3198 44.8279 30.6125C40.8062 26.8519 35.5059 24.7599 30 24.7599C24.494 24.7599 19.1937 26.8519 15.172 30.6125C14.4156 31.3198 13.2291 31.2799 12.5218 30.5236C11.8146 29.7672 11.8544 28.5807 12.6107 27.8734Z" fill="#725A3D"/>
<path fill-rule="evenodd" clip-rule="evenodd" d="M6.28456 19.9418C12.8117 14.119 21.253 10.9011 29.9999 10.9011C38.7469 10.9011 47.1881 14.119 53.7153 19.9418C54.488 20.6312 54.5556 21.8164 53.8663 22.5892C53.1769 23.3619 51.9917 23.4295 51.2189 22.7402C45.3788 17.5303 37.8261 14.6511 29.9999 14.6511C22.1737 14.6511 14.621 17.5303 8.78091 22.7402C8.00817 23.4295 6.82291 23.3619 6.13356 22.5892C5.44421 21.8164 5.51182 20.6312 6.28456 19.9418Z" fill="#725A3D"/>
<path d="M30 48.75C29.2583 48.75 28.5333 48.5301 27.9166 48.118C27.2999 47.706 26.8193 47.1203 26.5355 46.4351C26.2516 45.7498 26.1774 44.9958 26.3221 44.2684C26.4668 43.541 26.8239 42.8728 27.3484 42.3484C27.8728 41.8239 28.541 41.4668 29.2684 41.3221C29.9958 41.1774 30.7498 41.2516 31.4351 41.5355C32.1203 41.8193 32.706 42.2999 33.118 42.9166C33.5301 43.5333 33.75 44.2583 33.75 45C33.75 45.9946 33.3549 46.9484 32.6517 47.6517C31.9484 48.3549 30.9946 48.75 30 48.75Z" fill="#725A3D"/>
</svg>
