<svg width="40" height="40" viewBox="0 0 40 40" fill="none" xmlns="http://www.w3.org/2000/svg">
<rect width="40" height="40" rx="20" fill="#FE2E3C"/>
<path d="M30.5403 13.8164C30.2873 12.7078 29.5418 11.8347 28.5953 11.5384C26.8796 11 20 11 20 11C20 11 13.1204 11 11.4047 11.5384C10.4582 11.8347 9.71273 12.7078 9.45971 13.8164C9 15.8258 9 20.0182 9 20.0182C9 20.0182 9 24.2106 9.45971 26.22C9.71273 27.3286 10.4582 28.1653 11.4047 28.4616C13.1204 29 20 29 20 29C20 29 26.8796 29 28.5953 28.4616C29.5418 28.1653 30.2873 27.3286 30.5403 26.22C31 24.2106 31 20.0182 31 20.0182C31 20.0182 31 15.8258 30.5403 13.8164ZM17.75 23.8246V16.2118L23.5 20.0183L17.75 23.8246Z" fill="white"/>
</svg>
